# Blender v3.4.1 OBJ File: '1911.blend'
# www.blender.org
mtllib 1911.mtl
o Cube_Cube.001
v -0.145000 -0.145000 -0.195000
v -0.145000 0.145000 -0.195000
v -0.145000 -0.145000 -0.485000
v -0.145000 0.145000 -0.485000
v 0.205663 -0.145000 -0.195000
v 0.205663 0.145000 -0.195000
v 0.205663 -0.145000 -0.485000
v 0.205663 0.145000 -0.485000
v 0.540627 -0.145000 -0.195000
v 0.540627 0.145000 -0.195000
v 0.540627 -0.145000 -0.485000
v 0.540627 0.145000 -0.485000
v 0.696241 -0.145000 -0.195000
v 0.696241 0.145000 -0.195000
v 0.585465 -0.145000 -0.485000
v 0.585465 0.145000 -0.485000
v -0.541486 -0.077674 -0.214287
v -0.541486 0.077674 -0.214287
v -0.466777 -0.145000 -0.485000
v -0.466777 0.145000 -0.485000
v -0.145000 -0.145000 -0.278076
v -0.145000 0.145000 -0.278076
v 0.205663 -0.145000 -0.278076
v 0.205663 0.145000 -0.278076
v 0.540627 -0.145000 -0.278076
v 0.540627 0.145000 -0.278076
v 0.664507 -0.145000 -0.278076
v 0.664507 0.145000 -0.278076
v -0.541486 -0.077674 -0.258789
v -0.541486 0.077674 -0.258789
v -0.145000 0.145000 -0.403269
v 0.205663 -0.145000 -0.403269
v 0.540627 -0.145000 -0.403269
v 0.616685 -0.145000 -0.403269
v -0.466777 0.145000 -0.403269
v -0.145000 -0.145000 -0.403269
v 0.205663 0.145000 -0.403269
v 0.540627 0.145000 -0.403269
v 0.616685 0.145000 -0.403269
v -0.466777 -0.145000 -0.403269
v -0.713871 -0.077674 -0.214287
v -0.713871 0.077674 -0.214287
v -0.788580 -0.145000 -0.485000
v -0.788580 0.145000 -0.485000
v -0.713871 -0.077674 -0.258789
v -0.713871 0.077674 -0.258789
v -0.788580 0.145000 -0.403269
v -0.788580 -0.145000 -0.403269
v -0.782404 -0.139434 -0.370376
v -0.776228 -0.133868 -0.337483
v -0.770052 -0.128303 -0.304591
v -0.763876 0.061368 -0.271698
v -0.763876 0.000000 -0.271698
v -0.763876 -0.061368 -0.271698
v -0.770052 0.128303 -0.304591
v -0.776228 0.133868 -0.337483
v -0.782404 0.139434 -0.370376
v -0.788580 0.072500 -0.403269
v -0.788580 -0.000000 -0.403269
v -0.788580 -0.072500 -0.403269
v -0.770596 -0.058500 -0.307488
v -0.776228 -0.064075 -0.337483
v -0.781637 -0.061063 -0.366293
v -0.766576 -0.000000 -0.286081
v -0.797307 -0.058500 -0.307488
v -0.785880 -0.000000 -0.388885
v -0.770596 0.058500 -0.307488
v -0.776228 0.064075 -0.337483
v -0.781637 0.061063 -0.366293
v -0.802939 -0.064075 -0.337483
v -0.808348 -0.061063 -0.366293
v -0.793287 -0.000000 -0.286081
v -0.812590 -0.000000 -0.388885
v -0.797307 0.058500 -0.307488
v -0.802939 0.064075 -0.337483
v -0.808348 0.061063 -0.366293
v 0.658324 -0.107507 -0.294262
v 0.658324 0.107507 -0.294262
v 0.622868 -0.107507 -0.387083
v 0.622868 0.107507 -0.387083
v 0.707553 -0.107507 -0.313066
v 0.707553 0.107507 -0.313066
v 0.672097 -0.107507 -0.405888
v 0.672097 0.107507 -0.405888
v 0.449267 0.145000 0.458884
v 0.449267 -0.145000 0.458884
v 0.784231 0.145000 0.458884
v 0.784231 -0.145000 0.458884
v -0.145000 -0.145000 0.005043
v -0.145000 0.145000 0.005043
v 0.205663 0.145000 0.005043
v 0.205663 -0.145000 0.005043
v 0.280693 0.145000 0.006396
v 0.615657 0.145000 0.006396
v 0.615657 -0.145000 0.006396
v 0.280693 -0.145000 0.006396
v -0.115883 -0.120920 -0.178390
v 0.176546 -0.120920 -0.178390
v 0.176546 0.120920 -0.178390
v -0.115883 0.120920 -0.178390
v -0.115883 -0.120920 -0.011567
v 0.176546 -0.120920 -0.011567
v 0.176546 0.120920 -0.011567
v -0.115883 0.120920 -0.011567
v 0.028681 -0.043365 -0.178390
v 0.133552 -0.043365 -0.178390
v 0.133552 0.043365 -0.178390
v 0.028681 0.043365 -0.178390
v 0.028681 -0.043365 -0.072388
v 0.133552 -0.043365 -0.072388
v 0.133552 0.043365 -0.072388
v 0.028681 0.043365 -0.072388
vt 0.875000 0.570458
vt 0.875000 0.500000
vt 0.875000 0.500000
vt 0.875000 0.570458
vt 0.375000 0.250000
vt 0.625000 0.250000
vt 0.625000 0.500000
vt 0.375000 0.500000
vt 0.625000 0.750000
vt 0.625000 0.750000
vt 0.625000 0.750000
vt 0.625000 0.750000
vt 0.625000 1.000000
vt 0.375000 1.000000
vt 0.375000 1.000000
vt 0.625000 1.000000
vt 0.125000 0.678383
vt 0.375000 0.678383
vt 0.375000 0.750000
vt 0.125000 0.750000
vt 0.625000 0.678383
vt 0.875000 0.678383
vt 0.875000 0.750000
vt 0.625000 0.750000
vt 0.375000 0.570458
vt 0.375000 0.500000
vt 0.375000 0.500000
vt 0.375000 0.570458
vt 0.375000 0.570458
vt 0.625000 0.750000
vt 0.625000 0.678383
vt 0.625000 0.500000
vt 0.375000 0.678383
vt 0.625000 0.678383
vt 0.625000 0.750000
vt 0.375000 0.750000
vt 0.625000 0.500000
vt 0.375000 0.750000
vt 0.375000 1.000000
vt 0.625000 1.000000
vt 0.625000 1.000000
vt 0.375000 1.000000
vt 0.125000 0.750000
vt 0.125000 0.678383
vt 0.375000 0.250000
vt 0.625000 0.250000
vt 0.125000 0.570458
vt 0.125000 0.570458
vt 0.375000 0.250000
vt 0.625000 0.250000
vt 0.625000 0.570458
vt 0.625000 0.570458
vt 0.625000 0.570458
vt 0.375000 0.570458
vt 0.625000 0.570458
vt 0.375000 0.678383
vt 0.875000 0.678383
vt 0.875000 0.750000
vt 0.125000 0.500000
vt 0.125000 0.500000
vt 0.125000 0.678383
vt 0.125000 0.651402
vt 0.125000 0.624420
vt 0.125000 0.597439
vt 0.125000 0.570458
vt 0.375000 0.179542
vt 0.437500 0.179542
vt 0.500000 0.179542
vt 0.562500 0.179542
vt 0.625000 0.179542
vt 0.375000 0.000000
vt 0.625000 0.000000
vt 0.625000 0.071617
vt 0.562500 0.071617
vt 0.500000 0.071617
vt 0.437500 0.071617
vt 0.375000 0.071617
vt 0.562500 0.152561
vt 0.625000 0.152561
vt 0.875000 0.570458
vt 0.875000 0.597439
vt 0.875000 0.624421
vt 0.875000 0.651402
vt 0.875000 0.678383
vt 0.875000 0.750000
vt 0.125000 0.500000
vt 0.875000 0.500000
vt 0.125000 0.750000
vt 0.375000 0.152561
vt 0.437500 0.152561
vt 0.500000 0.152561
vt 0.437500 0.098598
vt 0.375000 0.098598
vt 0.437500 0.125579
vt 0.375000 0.125579
vt 0.500000 0.098598
vt 0.437500 0.098598
vt 0.437500 0.125579
vt 0.562500 0.098598
vt 0.562500 0.125579
vt 0.562500 0.125579
vt 0.562500 0.098598
vt 0.500000 0.098598
vt 0.437500 0.152561
vt 0.500000 0.152561
vt 0.625000 0.098598
vt 0.625000 0.125579
vt 0.562500 0.152561
vt 0.375000 0.678383
vt 0.375000 0.570458
vt 0.375000 0.678383
vt 0.625000 0.678383
vt 0.625000 0.570458
vt 0.625000 0.678383
vt 0.375000 0.750000
vt 0.375000 0.750000
vt 0.375000 0.750000
vt 0.375000 0.750000
vt 0.375000 0.750000
vt 0.625000 0.750000
vt 0.375000 0.750000
vt 0.375000 0.750000
vt 0.875000 0.750000
vt 0.625000 0.750000
vt 0.625000 0.750000
vt 0.375000 0.750000
vt 0.375000 1.000000
vt 0.625000 1.000000
vt 0.625000 1.000000
vt 0.375000 1.000000
vt 0.125000 0.750000
vt 0.625000 0.750000
vt 0.125000 0.750000
vt 0.375000 0.750000
vt 0.125000 0.750000
vt 0.375000 1.000000
vt 0.625000 1.000000
vt 0.875000 0.750000
vt 0.375000 1.000000
vt 0.625000 0.750000
vt 0.625000 1.000000
vt 0.875000 0.750000
vn 0.0000 1.0000 0.0000
vn 0.0000 0.0000 -1.0000
vn -1.0000 0.0000 0.0000
vn 0.0000 -1.0000 0.0000
vn 0.9342 0.0000 -0.3568
vn 0.0000 0.0000 1.0000
vn -0.1674 -0.9859 0.0000
vn -0.0486 0.0000 0.9988
vn -0.0852 -0.9720 0.2191
vn -0.1674 0.9859 0.0000
vn 0.0509 -0.9151 0.4001
vn -0.0852 0.9720 0.2191
vn -0.7815 0.0000 0.6239
vn -0.9828 0.0000 0.1845
vn 0.0509 0.9151 0.4001
vn -0.6781 -0.2728 0.6825
vn 0.0000 -0.9832 0.1827
vn 0.0000 0.9832 0.1827
vn 0.0000 -0.3436 0.9391
vn 0.0000 -0.3470 -0.9379
vn -0.6781 0.2728 0.6825
vn 0.0000 0.9946 -0.1040
vn 0.0000 0.3470 -0.9379
vn 0.0000 0.3436 0.9391
vn 0.0000 -0.9946 -0.1040
vn -0.3568 0.0000 -0.9342
vn 0.3568 0.0000 0.9342
vn 0.9371 0.0000 -0.3491
vn -0.9371 0.0000 0.3491
vn -0.6373 -0.7706 0.0000
vn 0.0000 0.5678 0.8232
vn -0.0180 0.0000 0.9998
vn 1.0000 0.0000 0.0000
vn 0.6373 -0.7706 0.0000
vn 0.0000 -0.5678 -0.8232
vn 0.0000 -0.5678 0.8232
vn -0.6373 0.7706 0.0000
vn 0.6373 0.7706 0.0000
vn 0.0000 0.5678 -0.8232
usemtl None
s off
f 31/1/1 4/2/1 20/3/1 35/4/1
f 3/5/2 4/6/2 8/7/2 7/8/2
f 94/9/1 93/10/1 85/11/1 87/12/1
f 2/13/3 1/14/3 89/15/3 90/16/3
f 21/17/4 23/18/4 5/19/4 1/20/4
f 24/21/1 22/22/1 2/23/1 6/24/1
f 33/25/4 11/26/4 15/27/4 34/28/4
f 32/29/4 7/8/4 11/26/4 33/25/4
f 24/21/1 6/24/1 10/30/1 26/31/1
f 7/8/2 8/7/2 12/32/2 11/26/2
f 27/33/5 28/34/5 14/35/5 13/36/5
f 26/31/1 10/30/1 14/35/1 28/34/1
f 11/26/2 12/32/2 16/37/2 15/27/2
f 10/30/6 9/38/6 13/36/6 14/35/6
f 17/39/6 18/40/6 42/41/6 41/42/6
f 21/17/7 1/20/7 17/43/7 29/44/7
f 4/6/2 3/5/2 19/45/2 20/46/2
f 1/14/8 2/13/8 18/40/8 17/39/8
f 36/47/9 21/17/9 29/44/9 40/48/9
f 20/46/2 19/45/2 43/49/2 44/50/2
f 38/51/1 26/31/1 28/34/1 39/52/1
f 34/28/5 39/52/5 80/53/5 79/54/5
f 37/55/1 24/21/1 26/31/1 38/51/1
f 5/19/4 23/18/4 25/56/4 9/38/4
f 9/38/4 25/56/4 27/33/4 13/36/4
f 37/55/1 31/1/1 22/22/1 24/21/1
f 36/47/4 32/29/4 23/18/4 21/17/4
f 2/23/10 22/22/10 30/57/10 18/58/10
f 3/59/4 7/8/4 32/29/4 36/47/4
f 8/7/1 4/2/1 31/1/1 37/55/1
f 8/7/1 37/55/1 38/51/1 12/32/1
f 15/27/5 16/37/5 39/52/5 34/28/5
f 12/32/1 38/51/1 39/52/1 16/37/1
f 3/59/4 36/47/4 40/48/4 19/60/4
f 40/48/11 29/44/11 45/61/11 51/62/11 50/63/11 49/64/11 48/65/11
f 23/18/4 32/29/4 33/25/4 25/56/4
f 25/56/4 33/25/4 34/28/4 27/33/4
f 22/22/12 31/1/12 35/4/12 30/57/12
f 48/66/3 60/67/3 59/68/3 58/69/3 47/70/3 44/50/3 43/49/3
f 41/71/13 42/72/13 46/73/13 52/74/13 53/75/13 54/76/13 45/77/13
f 69/78/14 57/79/14 47/70/14 58/69/14
f 30/57/15 35/4/15 47/80/15 57/81/15 56/82/15 55/83/15 46/84/15
f 18/58/1 30/57/1 46/84/1 42/85/1
f 19/60/4 40/48/4 48/65/4 43/86/4
f 35/4/1 20/3/1 44/87/1 47/80/1
f 29/44/4 17/43/4 41/88/4 45/61/4
f 49/89/14 63/90/14 60/67/14 48/66/14
f 63/90/14 66/91/14 59/68/14 60/67/14
f 66/91/14 69/78/14 58/69/14 59/68/14
f 45/77/16 54/76/16 61/92/16 51/93/16
f 51/93/14 61/92/14 62/94/14 50/95/14
f 50/95/14 62/94/14 63/90/14 49/89/14
f 54/76/14 53/75/14 64/96/14 61/92/14
f 62/94/17 61/92/17 65/97/17 70/98/17
f 67/99/18 68/100/18 75/101/18 74/102/18
f 53/75/14 52/74/14 67/99/14 64/96/14
f 61/92/19 64/96/19 72/103/19 65/97/19
f 66/91/20 63/90/20 71/104/20 73/105/20
f 52/74/21 46/73/21 55/106/21 67/99/21
f 67/99/14 55/106/14 56/107/14 68/100/14
f 68/100/14 56/107/14 57/79/14 69/78/14
f 68/100/22 69/78/22 76/108/22 75/101/22
f 69/78/23 66/91/23 73/105/23 76/108/23
f 64/96/24 67/99/24 74/102/24 72/103/24
f 63/90/25 62/94/25 70/98/25 71/104/25
f 77/109/4 79/54/4 83/110/4 81/111/4
f 39/52/5 28/34/5 78/112/5 80/53/5
f 27/33/5 34/28/5 79/54/5 77/109/5
f 28/34/5 27/33/5 77/109/5 78/112/5
f 83/110/5 84/113/5 82/114/5 81/111/5
f 80/53/1 78/112/1 82/114/1 84/113/1
f 79/54/26 80/53/26 84/113/26 83/110/26
f 78/112/27 77/109/27 81/111/27 82/114/27
f 85/11/6 86/115/6 88/116/6 87/12/6
f 95/117/28 94/9/28 87/12/28 88/116/28
f 93/10/29 96/118/29 86/115/29 85/11/29
f 96/118/4 95/117/4 88/116/4 86/115/4
f 92/119/6 91/120/6 90/16/6 89/15/6
f 5/19/30 92/119/30 102/121/30 98/122/30
f 6/24/31 2/23/31 100/123/31 99/124/31
f 93/10/1 6/24/1 91/120/1
f 5/19/4 9/38/4 95/117/4 96/118/4
f 92/119/4 5/19/4 96/118/4
f 9/38/28 10/30/28 94/9/28 95/117/28
f 10/30/1 6/24/1 93/10/1 94/9/1
f 93/10/32 91/120/32 92/119/32 96/118/32
f 98/122/6 99/124/6 107/125/6 106/126/6
f 97/127/33 100/128/33 104/129/33 101/130/33
f 89/15/34 1/14/34 97/127/34 101/130/34
f 92/119/35 89/15/35 101/130/35 102/121/35
f 1/20/36 5/19/36 98/122/36 97/131/36
f 91/120/37 6/24/37 99/124/37 103/132/37
f 2/13/38 90/16/38 104/129/38 100/128/38
f 90/16/39 91/120/39 103/132/39 104/129/39
f 98/122/3 102/121/3 103/132/3 99/124/3
f 101/130/2 104/129/2 103/132/2 102/121/2
f 105/133/4 106/126/4 110/134/4 109/135/4
f 100/128/6 97/127/6 105/136/6 108/137/6
f 99/124/6 100/123/6 108/138/6 107/125/6
f 97/131/6 98/122/6 106/126/6 105/133/6
f 109/139/6 110/134/6 111/140/6 112/141/6
f 106/126/33 107/125/33 111/140/33 110/134/33
f 107/125/1 108/138/1 112/142/1 111/140/1
f 108/137/3 105/136/3 109/139/3 112/141/3
