# Blender v3.4.1 OBJ File: 'borchadtc93.blend'
# www.blender.org
mtllib borchadtc93.mtl
o Cylinder
v -0.175663 0.055281 0.021776
v -0.145787 0.052541 -0.045052
v -0.220673 0.055281 0.421422
v -0.145787 -0.052541 -0.045052
v -0.220673 -0.055281 0.421422
v -0.175663 -0.055281 0.021776
v -0.368275 -0.052541 -0.045052
v -0.412173 -0.055281 0.421422
v -0.368275 0.052541 -0.045052
v -0.412173 0.055281 0.421422
v -0.367163 -0.055281 0.021776
v -0.145787 0.052541 -0.214475
v -0.145787 -0.052541 -0.214475
v -0.367163 0.055281 0.021776
v -0.368275 -0.052541 -0.214475
v -0.368275 0.052541 -0.214475
v -0.145787 0.041698 -0.062535
v -0.145787 -0.041698 -0.062535
v -0.145787 0.041698 -0.196992
v -0.145787 -0.041698 -0.196992
v 0.060929 0.052541 -0.045052
v 0.060929 -0.052541 -0.045052
v 0.060929 0.041698 -0.062535
v 0.060929 -0.041698 -0.062535
v 0.060929 0.052541 -0.045052
v 0.060929 -0.052541 -0.045052
v 0.060929 0.041698 -0.062535
v 0.060929 -0.041698 -0.062535
v 0.052725 0.052541 -0.214475
v 0.052725 -0.052541 -0.214475
v 0.052725 0.041698 -0.196992
v 0.052725 -0.041698 -0.196992
v 0.090321 0.052541 -0.045052
v 0.090321 -0.052541 -0.045052
v 0.090321 0.041698 -0.062535
v 0.090321 -0.041698 -0.062535
v 0.082117 0.052541 -0.214475
v 0.082117 -0.052541 -0.214475
v 0.082117 0.041698 -0.196992
v 0.082117 -0.041698 -0.196992
v -0.145787 0.070000 -0.356877
v -0.145787 -0.070000 -0.356877
v -0.388275 -0.070000 -0.356877
v -0.388275 0.070000 -0.356877
v 0.087743 0.052541 -0.214475
v 0.087743 -0.052541 -0.214475
v 0.087743 0.070000 -0.356877
v 0.087743 -0.070000 -0.356877
v 0.132006 0.042726 -0.242217
v 0.132006 -0.042726 -0.242217
v 0.132006 0.042726 -0.329135
v 0.132006 -0.042726 -0.329135
v 0.132006 0.016605 -0.235006
v 0.132006 -0.016605 -0.235006
v 0.132006 0.016605 -0.336346
v 0.132006 -0.016605 -0.336346
v 0.132006 -0.050205 -0.268654
v 0.132006 -0.050205 -0.302698
v 0.132006 0.050205 -0.302698
v 0.132006 0.050205 -0.268654
v 0.132006 0.028453 -0.256735
v 0.132006 0.028453 -0.314617
v 0.132006 -0.028453 -0.256735
v 0.132006 -0.028453 -0.314617
v 1.048543 -0.016605 -0.235006
v 1.048543 -0.042726 -0.242217
v 1.048543 -0.016605 -0.336346
v 1.048543 -0.042726 -0.329135
v 1.048543 -0.050205 -0.302698
v 1.048543 0.050205 -0.268654
v 1.048543 0.042726 -0.242217
v 1.048543 0.016605 -0.235006
v 1.048543 0.042726 -0.329135
v 1.048543 0.016605 -0.336346
v 1.048543 -0.050205 -0.268654
v 1.048543 0.050205 -0.302698
v 1.048543 0.028453 -0.314617
v 1.048543 0.028453 -0.256735
v 1.048543 -0.028453 -0.314617
v 1.048543 -0.028453 -0.256735
v -0.564549 -0.070000 -0.214475
v -0.564549 0.070000 -0.214475
v -0.564549 -0.070000 -0.356877
v -0.564549 0.070000 -0.356877
v -0.793397 -0.079173 -0.047334
v -0.793397 0.079173 -0.047334
v -0.793397 -0.079173 -0.355657
v -0.793397 0.079173 -0.355657
v -0.878853 -0.075394 -0.051178
v -0.878853 0.075394 -0.051178
v -0.878853 -0.075394 -0.351813
v -0.878853 0.075394 -0.351813
v -0.940571 -0.074678 -0.051906
v -0.940571 0.074678 -0.051906
v -0.940571 -0.074678 -0.351084
v -0.940571 0.074678 -0.351084
v -1.063479 -0.067264 -0.117472
v -1.063479 0.067264 -0.117472
v -1.063479 -0.067264 -0.309256
v -1.063479 0.067264 -0.309256
v -0.132801 0.015956 -0.196992
v -0.132801 -0.015956 -0.196992
v -0.056838 0.015956 -0.196992
v -0.056838 -0.015956 -0.196992
v -0.053352 0.010188 -0.099131
v -0.053352 -0.010188 -0.099131
v -0.004852 0.010188 -0.099131
v -0.004852 -0.010188 -0.099131
vt 0.666667 0.515527
vt 0.333333 0.515526
vt 0.333333 0.500000
vt 0.666667 0.500000
vt 0.833333 0.515527
vt 0.833333 1.000000
vt 0.666667 1.000000
vt 0.166667 0.500000
vt 0.166667 0.515526
vt 0.833333 0.500000
vt 0.457846 0.370000
vt 0.042154 0.370000
vt 0.042154 0.130000
vt 0.457846 0.130000
vt 0.333333 1.000000
vt 0.166667 1.000000
vt 0.666667 0.500000
vt 0.333333 0.500000
vt 0.333333 0.500000
vt 0.666667 0.500000
vt 0.957846 0.370000
vt 0.957846 0.130000
vt 0.957846 0.130000
vt 0.957846 0.370000
vt 0.833333 0.500000
vt 0.166667 0.500000
vt 0.833333 0.500000
vt 0.833333 0.500000
vt 0.666667 0.500000
vt 0.666667 0.500000
vt 0.833333 0.500000
vt 0.833333 0.500000
vt 0.833333 0.500000
vt 0.833333 0.500000
vt 0.957846 0.370000
vt 0.833333 0.500000
vt 0.833333 0.500000
vt 0.666667 0.500000
vt 0.666667 0.500000
vt 0.666667 0.500000
vt 0.666667 0.500000
vt 0.833333 0.500000
vt 0.666667 0.500000
vt 0.666667 0.500000
vt 0.666667 0.500000
vt 0.666667 0.500000
vt 0.666667 0.500000
vt 0.957846 0.370000
vt 0.957846 0.370000
vt 0.666667 0.500000
vt 0.957846 0.370000
vt 0.957846 0.130000
vt 0.666667 0.500000
vt 0.833333 0.500000
vt 0.957846 0.130000
vt 0.957846 0.370000
vt 0.957846 0.370000
vt 0.957846 0.130000
vt 0.833333 0.500000
vt 0.833333 0.500000
vt 0.957846 0.370000
vt 0.957846 0.130000
vt 0.542154 0.130000
vt 0.542154 0.370000
vt 0.166667 0.500000
vt 0.166667 0.500000
vt 0.166667 0.500000
vt 0.666667 0.500000
vt 0.666667 0.500000
vt 0.666667 0.500000
vt 0.666667 0.500000
vt 0.666667 0.500000
vt 0.666667 0.500000
vt 0.957846 0.370000
vt 0.957846 0.130000
vt 0.833333 0.500000
vt 0.833333 0.500000
vt 0.833333 0.500000
vt 0.666667 0.500000
vt 0.666667 0.500000
vt 0.957846 0.130000
vt 0.957846 0.210000
vt 0.957846 0.290000
vt 0.957846 0.370000
vt 0.833333 0.500000
vt 0.833333 0.500000
vt 0.833333 0.500000
vt 0.833333 0.500000
vt 0.957846 0.370000
vt 0.957846 0.290000
vt 0.957846 0.210000
vt 0.957846 0.130000
vt 0.000000 0.000000
vt 0.000000 0.000000
vt 0.000000 0.000000
vt 0.000000 0.000000
vt 0.957846 0.210000
vt 0.957846 0.290000
vt 0.957846 0.210000
vt 0.957846 0.130000
vt 0.957846 0.370000
vt 0.833333 0.500000
vt 0.833333 0.500000
vt 0.957846 0.210000
vt 0.957846 0.130000
vt 0.957846 0.130000
vt 0.833333 0.500000
vt 0.957846 0.370000
vt 0.957846 0.290000
vt 0.957846 0.290000
vt 0.957846 0.370000
vt 0.957846 0.290000
vt 0.957846 0.370000
vt 0.957846 0.210000
vt 0.957846 0.130000
vt 0.000000 0.000000
vt 0.000000 0.000000
vt 0.000000 0.000000
vt 0.000000 0.000000
vt 0.833333 0.500000
vt 0.666667 0.500000
vt 0.666667 0.500000
vt 0.333333 0.500000
vt 0.333333 0.500000
vt 0.333333 0.500000
vt 0.333333 0.500000
vt 0.542154 0.130000
vt 0.542154 0.370000
vt 0.542154 0.370000
vt 0.542154 0.130000
vt 0.542154 0.130000
vt 0.542154 0.370000
vt 0.166667 0.500000
vt 0.166667 0.500000
vt 0.166667 0.500000
vt 0.166667 0.500000
vt 0.166667 0.500000
vt 0.166667 0.500000
vt 0.333333 0.500000
vt 0.333333 0.500000
vt 0.333333 0.500000
vt 0.333333 0.500000
vt 0.333333 0.500000
vt 0.333333 0.500000
vt 0.542154 0.130000
vt 0.542154 0.370000
vt 0.166667 0.500000
vt 0.166667 0.500000
vt 0.542154 0.130000
vt 0.542154 0.370000
vt 0.666667 0.500000
vt 0.666667 0.500000
vt 0.666667 0.500000
vt 0.957846 0.370000
vt 0.833333 0.500000
vt 0.833333 0.500000
vt 0.957846 0.370000
vt 0.957846 0.370000
vt 0.833333 0.500000
vt 0.833333 0.500000
vn 0.0000 -0.9992 -0.0410
vn 0.9937 0.0000 0.1119
vn 0.0000 0.9992 -0.0410
vn -0.9999 0.0000 0.0166
vn 0.0000 0.0000 1.0000
vn -0.9937 0.0000 -0.1119
vn 0.9129 0.0000 0.4081
vn 0.0000 -0.9926 0.1217
vn 0.0000 1.0000 0.0000
vn 1.0000 0.0000 0.0000
vn -1.0000 0.0000 0.0000
vn 0.0000 0.8498 0.5271
vn 0.0000 0.8498 -0.5271
vn 0.0000 0.0000 -1.0000
vn 0.0000 -0.8498 -0.5271
vn 0.0000 -0.8498 0.5271
vn 0.9981 0.0000 -0.0609
vn 0.0000 -1.0000 -0.0000
vn -0.9981 0.0000 0.0609
vn 0.0467 0.9972 0.0578
vn 0.3124 -0.9472 0.0721
vn -0.0000 0.9926 0.1217
vn 0.0000 -0.9622 -0.2722
vn 0.4650 0.0000 0.8853
vn 0.3124 0.9472 0.0721
vn 0.4758 0.0000 -0.8795
vn 0.0000 -0.2661 -0.9639
vn 0.0000 0.2661 0.9639
vn 0.0000 -0.2661 0.9639
vn 0.0000 0.9622 -0.2722
vn 0.0000 0.2661 -0.9639
vn 0.0000 0.9622 0.2722
vn 0.0000 -0.9622 0.2722
vn 0.0401 -0.9992 -0.0000
vn 0.0467 -0.9972 0.0578
vn -0.0449 0.0000 -0.9990
vn -0.0053 0.0000 -1.0000
vn 0.0401 0.9992 0.0000
vn 0.5898 0.0000 0.8075
vn -0.0116 0.9999 0.0000
vn -0.0442 0.9990 0.0000
vn -0.0449 0.0000 0.9990
vn -0.0442 -0.9990 -0.0000
vn -0.0602 -0.9982 -0.0000
vn -0.0118 0.0000 0.9999
vn -0.0116 -0.9999 -0.0000
vn -0.0118 0.0000 -0.9999
vn -0.3222 0.0000 -0.9467
vn -0.0602 0.9982 0.0000
vn -0.4707 0.0000 0.8823
vn 0.0000 -0.9983 0.0588
vn 0.8831 0.0000 -0.4691
vn 0.0000 0.9983 0.0588
vn -0.7764 0.0000 0.6303
usemtl None
s off
f 6/1/1 11/2/1 7/3/1 4/4/1
f 1/5/2 3/6/2 5/7/2 6/1/2
f 9/8/3 14/9/3 1/5/3 2/10/3
f 7/3/4 11/2/4 14/9/4 9/8/4
f 3/11/5 10/12/5 8/13/5 5/14/5
f 11/2/6 8/15/6 10/16/6 14/9/6
f 2/10/7 1/5/7 6/1/7 4/4/7
f 13/17/8 15/18/8 43/19/8 42/20/8
f 12/21/5 13/22/5 46/23/5 45/24/5
f 9/8/9 2/10/9 12/25/9 16/26/9
f 12/25/10 2/10/10 17/27/10 19/28/10
f 7/3/11 9/8/11 16/26/11 15/18/11
f 4/4/10 13/17/10 20/29/10 18/30/10
f 12/25/12 19/28/12 31/31/12 29/32/12
f 17/27/13 2/10/13 21/33/13 23/34/13
f 18/30/10 20/29/10 19/35/10 17/27/10
f 23/34/5 21/33/5 25/36/5 27/37/5
f 18/30/14 17/27/14 23/34/14 24/38/14
f 2/10/5 4/4/5 22/39/5 21/33/5
f 4/4/15 18/30/15 24/38/15 22/39/15
f 25/36/5 26/40/5 34/41/5 33/42/5
f 21/33/5 22/39/5 26/40/5 25/36/5
f 22/39/5 24/38/5 28/43/5 26/40/5
f 24/38/5 23/34/5 27/37/5 28/43/5
f 32/44/16 30/45/16 38/46/16 40/47/16
f 32/44/5 31/48/5 103/49/5 104/50/5
f 20/29/16 13/17/16 30/45/16 32/44/16
f 13/22/14 12/21/14 29/51/14 30/52/14
f 33/42/10 34/41/10 36/53/10 35/54/10
f 38/55/10 37/56/10 39/57/10 40/58/10
f 36/53/17 40/58/17 39/57/17 35/54/17
f 26/40/15 28/43/15 36/53/15 34/41/15
f 39/59/9 31/31/9 27/37/9 35/54/9
f 29/32/12 31/31/12 39/59/12 37/60/12
f 30/52/14 29/51/14 37/56/14 38/55/14
f 27/37/13 25/36/13 33/42/13 35/54/13
f 40/58/18 36/53/18 28/43/18 32/44/18
f 28/43/19 27/37/19 31/48/19 32/44/19
f 41/61/14 42/62/14 43/63/14 44/64/14
f 16/26/20 44/65/20 84/66/20 82/67/20
f 14/9/9 10/16/9 3/6/9 1/5/9
f 4/4/18 7/3/18 15/18/18 13/17/18
f 5/7/18 8/15/18 11/2/18 6/1/18
f 46/68/21 48/69/21 52/70/21 58/71/21 57/72/21 50/73/21
f 42/62/14 41/61/14 47/74/14 48/75/14
f 13/17/8 42/20/8 48/69/8 46/68/8
f 41/76/22 12/25/22 45/77/22 47/78/22
f 58/71/23 52/70/23 68/79/23 69/80/23
f 45/24/24 46/23/24 50/81/24 54/82/24 53/83/24 49/84/24
f 47/78/25 45/77/25 49/85/25 60/86/25 59/87/25 51/88/25
f 48/75/26 47/74/26 51/89/26 55/90/26 56/91/26 52/92/26
f 63/93/14 61/94/14 78/95/14 80/96/14
f 53/83/5 54/82/5 65/97/5 72/98/5
f 52/92/27 56/91/27 67/99/27 68/100/27
f 49/84/28 53/83/28 72/98/28 71/101/28
f 59/87/9 60/86/9 70/102/9 76/103/9
f 79/104/10 69/105/10 68/100/10 67/99/10
f 54/82/29 50/81/29 66/106/29 65/97/29
f 51/88/30 59/87/30 76/103/30 73/107/30
f 76/108/10 77/109/10 74/110/10 73/111/10
f 77/109/10 79/104/10 67/99/10 74/110/10
f 71/101/10 72/98/10 78/112/10 70/113/10
f 70/113/10 78/112/10 77/109/10 76/108/10
f 72/98/10 65/97/10 80/114/10 78/112/10
f 65/97/10 66/106/10 75/115/10 80/114/10
f 80/114/10 75/115/10 69/105/10 79/104/10
f 55/90/31 51/89/31 73/111/31 74/110/31
f 62/116/5 64/117/5 79/118/5 77/119/5
f 60/86/32 49/85/32 71/120/32 70/102/32
f 61/94/18 62/116/18 77/119/18 78/95/18
f 56/91/14 55/90/14 74/110/14 67/99/14
f 50/73/33 57/72/33 75/121/33 66/122/33
f 57/72/18 58/71/18 69/80/18 75/121/18
f 64/117/9 63/93/9 80/96/9 79/118/9
f 83/123/34 81/124/34 85/125/34 87/126/34
f 15/18/5 16/26/5 82/67/5 81/124/5
f 44/64/14 43/63/14 83/127/14 84/128/14
f 43/19/35 15/18/35 81/124/35 83/123/35
f 88/129/36 87/130/36 91/131/36 92/132/36
f 84/128/37 83/127/37 87/130/37 88/129/37
f 82/67/38 84/66/38 88/133/38 86/134/38
f 81/124/39 82/67/39 86/134/39 85/125/39
f 90/135/40 92/136/40 96/137/40 94/138/40
f 86/134/41 88/133/41 92/136/41 90/135/41
f 85/125/42 86/134/42 90/135/42 89/139/42
f 87/126/43 85/125/43 89/139/43 91/140/43
f 95/141/44 93/142/44 97/143/44 99/144/44
f 89/139/45 90/135/45 94/138/45 93/142/45
f 91/140/46 89/139/46 93/142/46 95/141/46
f 92/132/47 91/131/47 95/145/47 96/146/47
f 97/143/11 98/147/11 100/148/11 99/144/11
f 96/146/48 95/145/48 99/149/48 100/150/48
f 94/138/49 96/137/49 100/148/49 98/147/49
f 93/142/50 94/138/50 98/147/50 97/143/50
f 102/151/51 104/50/51 108/152/51 106/153/51
f 19/35/5 20/29/5 102/151/5 101/154/5
f 20/29/5 32/44/5 104/50/5 102/151/5
f 31/31/5 19/28/5 101/155/5 103/156/5
f 105/157/5 106/153/5 108/152/5 107/158/5
f 104/50/52 103/49/52 107/158/52 108/152/52
f 103/156/53 101/155/53 105/159/53 107/160/53
f 101/154/54 102/151/54 106/153/54 105/157/54
f 16/26/22 12/25/22 41/76/22 44/65/22
