# Blender v3.4.1 OBJ File: 'mp40.blend'
# www.blender.org
mtllib mp40.mtl
o Cube_Cube.001
v -0.374000 -0.125000 -0.112365
v -0.374000 0.125000 -0.112365
v -0.374000 -0.125000 -0.325000
v -0.374000 0.125000 -0.325000
v 0.196898 -0.125000 -0.112365
v 0.196898 0.125000 -0.112365
v 0.196898 -0.125000 -0.325000
v 0.196898 0.125000 -0.325000
v 0.418889 -0.125000 -0.112365
v 0.418889 0.125000 -0.112365
v 0.418889 -0.125000 -0.325000
v 0.418889 0.125000 -0.325000
v 0.594723 -0.069911 -0.109220
v 0.594723 0.069911 -0.109220
v 0.594723 -0.069911 -0.228145
v 0.594723 0.069911 -0.228145
v 0.417100 -0.125000 -0.012381
v 0.417100 0.125000 -0.012381
v 0.592935 -0.069911 -0.009236
v 0.592935 0.069911 -0.009236
v 0.610129 -0.125000 0.302418
v 0.610129 0.125000 0.302418
v 0.746749 -0.069911 0.191681
v 0.746749 0.069911 0.191681
v 1.475864 -0.031875 -0.191571
v 1.475864 0.031875 -0.191571
v 1.475864 -0.031875 -0.245794
v 1.475864 0.031875 -0.245794
v 1.511580 -0.030307 -0.001664
v 1.511580 0.030307 -0.001664
v 1.511580 -0.030307 -0.435701
v 1.511580 0.030307 -0.435701
v 1.541955 -0.030307 -0.001664
v 1.541955 0.030307 -0.001664
v 1.541955 -0.030307 -0.435701
v 1.541955 0.030307 -0.435701
v -0.375857 -0.050471 -0.433143
v -0.375857 0.050471 -0.433143
v 0.215040 -0.050471 -0.433143
v 0.215040 0.050471 -0.433143
v 0.437031 -0.050471 -0.433143
v 0.437031 0.050471 -0.433143
v 0.548759 -0.028228 -0.336288
v 0.548759 0.028228 -0.336288
v -0.685989 0.125000 -0.109686
v -0.685989 -0.125000 -0.109686
v -0.540861 -0.125000 -0.110932
v -0.540861 0.125000 -0.110932
v -0.540861 -0.125000 -0.323567
v -0.540861 0.125000 -0.323567
v -0.542718 -0.050471 -0.431710
v -0.542718 0.050471 -0.431710
v -0.942161 0.050471 -0.426097
v -0.942161 -0.050471 -0.426097
v -0.940304 -0.125000 -0.317954
v -0.940304 0.125000 -0.317954
v -0.687846 -0.050471 -0.430464
v -0.687846 0.050471 -0.430464
v -1.509158 0.024102 -0.334977
v -1.509158 -0.024102 -0.334977
v -1.510053 -0.024328 -0.387105
v -1.510053 0.024328 -0.387105
v -1.590184 0.024328 -0.385729
v -1.590184 -0.024328 -0.385729
v -1.589289 -0.024102 -0.333600
v -1.589289 0.024102 -0.333600
v -1.591736 -0.024328 -0.476054
v -1.591736 0.024328 -0.476054
v -1.511605 0.024328 -0.477431
v -1.511605 -0.024328 -0.477431
v -1.589289 -0.024102 -0.333600
v -1.589289 0.024102 -0.333600
v -1.590184 -0.024328 -0.385729
v -1.590184 0.024328 -0.385729
v -1.591736 -0.024328 -0.476054
v -1.591736 0.024328 -0.476054
v -0.965493 -0.049397 -0.424495
v -0.963675 -0.048936 -0.318653
v -0.963675 0.048936 -0.318653
v -0.965493 0.049397 -0.424495
v -0.754334 0.125000 -0.321147
v -0.685989 0.125000 -0.253966
v -0.617636 0.125000 -0.322908
v -0.686955 0.086215 -0.378599
v -0.685989 -0.125000 -0.253966
v -0.754334 -0.125000 -0.321147
v -0.686955 -0.086215 -0.378599
v -0.617636 -0.125000 -0.322908
v -0.656289 0.073838 -0.109941
v -0.656289 -0.073838 -0.109941
v -0.570561 -0.073838 -0.110677
v -0.570561 0.073838 -0.110677
v -0.650213 0.073838 0.597667
v -0.650213 -0.073838 0.597667
v -0.564485 -0.073838 0.596931
v -0.564485 0.073838 0.596931
v 0.222649 0.125000 -0.112365
v 0.222649 0.125000 -0.325000
v 0.222649 -0.125000 -0.325000
v 0.222649 -0.125000 -0.112365
v 0.240791 0.050471 -0.433143
v 0.240791 -0.050471 -0.433143
v 0.196898 0.125000 -0.040177
v 0.196898 -0.125000 -0.040177
v 0.222649 0.125000 -0.040177
v 0.222649 -0.125000 -0.040177
v 0.417353 -0.125000 -0.026489
v 0.417353 0.125000 -0.026489
v 0.593187 -0.069911 -0.023344
v 0.593187 0.069911 -0.023344
v 0.239726 0.125000 -0.015553
v 0.239726 -0.125000 -0.015553
v 0.239978 -0.125000 -0.029661
v 0.239978 0.125000 -0.029661
v 0.321687 0.125000 -0.112365
v 0.321687 -0.125000 -0.112365
v 0.321687 0.125000 -0.325000
v 0.321687 -0.125000 -0.325000
v 0.339829 0.050471 -0.433143
v 0.339829 -0.050471 -0.433143
v 0.348903 0.125000 -0.112365
v 0.348903 -0.125000 -0.112365
v 0.348903 0.125000 -0.325000
v 0.348903 -0.125000 -0.325000
v 0.367046 0.050471 -0.433143
v 0.367046 -0.050471 -0.433143
v 0.282401 -0.072581 -0.047675
v 0.282401 0.072581 -0.047675
v 0.298204 0.072581 -0.047675
v 0.298204 -0.072581 -0.047675
vt 0.125000 0.500000
vt 0.125000 0.750000
vt 0.125000 0.750000
vt 0.125000 0.500000
vt 0.625000 0.500000
vt 0.625000 0.500000
vt 0.625000 0.500000
vt 0.625000 0.500000
vt 0.625000 0.500000
vt 0.625000 0.750000
vt 0.625000 0.750000
vt 0.375000 0.750000
vt 0.625000 0.750000
vt 0.625000 1.000000
vt 0.375000 1.000000
vt 0.375000 0.500000
vt 0.625000 0.500000
vt 0.875000 0.500000
vt 0.875000 0.750000
vt 0.375000 0.750000
vt 0.375000 0.750000
vt 0.375000 0.750000
vt 0.375000 0.750000
vt 0.375000 0.500000
vt 0.375000 0.500000
vt 0.375000 0.500000
vt 0.375000 0.750000
vt 0.375000 0.750000
vt 0.375000 0.500000
vt 0.375000 0.500000
vt 0.625000 0.750000
vt 0.625000 0.750000
vt 0.625000 0.500000
vt 0.375000 0.500000
vt 0.375000 0.750000
vt 0.375000 0.500000
vt 0.375000 0.750000
vt 0.375000 0.750000
vt 0.375000 0.750000
vt 0.375000 0.750000
vt 0.625000 0.750000
vt 0.625000 0.750000
vt 0.625000 0.750000
vt 0.625000 0.750000
vt 0.625000 0.750000
vt 0.625000 0.750000
vt 0.625000 0.750000
vt 0.625000 0.500000
vt 0.375000 0.500000
vt 0.375000 0.750000
vt 0.375000 0.500000
vt 0.625000 0.500000
vt 0.375000 0.500000
vt 0.375000 0.750000
vt 0.625000 0.750000
vt 0.375000 0.750000
vt 0.375000 0.250000
vt 0.625000 0.250000
vt 0.625000 0.500000
vt 0.375000 0.500000
vt 0.625000 0.500000
vt 0.375000 0.500000
vt 0.875000 0.500000
vt 0.375000 0.250000
vt 0.625000 0.250000
vt 0.125000 0.500000
vt 0.875000 0.500000
vt 0.875000 0.750000
vt 0.125000 0.500000
vt 0.625000 1.000000
vt 0.375000 1.000000
vt 0.875000 0.500000
vt 0.125000 0.750000
vt 0.125000 0.580367
vt 0.125000 0.500000
vt 0.125000 0.500000
vt 0.125000 0.500000
vt 0.875000 0.500000
vt 0.875000 0.500000
vt 0.875000 0.500000
vt 0.375000 0.250000
vt 0.625000 0.250000
vt 0.125000 0.500000
vt 0.125000 0.500000
vt 0.125000 0.500000
vt 0.625000 0.000000
vt 0.375000 0.000000
vt 0.375000 0.000000
vt 0.625000 0.000000
vt 0.875000 0.500000
vt 0.875000 0.500000
vt 0.875000 0.500000
vt 0.625000 0.250000
vt 0.375000 0.250000
vt 0.375000 0.250000
vt 0.625000 0.250000
vt 0.375000 0.250000
vt 0.625000 0.250000
vt 0.875000 0.580367
vt 0.875000 0.750000
vt 0.375000 0.250000
vt 0.625000 0.250000
vt 0.625000 0.250000
vt 0.375000 0.250000
vt 0.875000 0.500000
vt 0.875000 0.500000
vt 0.875000 0.500000
vt 0.875000 0.500000
vt 0.125000 0.500000
vt 0.125000 0.500000
vt 0.125000 0.500000
vt 0.125000 0.500000
vt 0.625000 0.250000
vt 0.375000 0.250000
vt 0.375000 0.250000
vt 0.625000 0.250000
vt 0.375000 0.250000
vt 0.625000 0.250000
vt 0.625000 0.250000
vt 0.375000 0.250000
vt 0.875000 0.500000
vt 0.875000 0.500000
vt 0.875000 0.500000
vt 0.875000 0.500000
vt 0.625000 0.250000
vt 0.375000 0.250000
vt 0.125000 0.500000
vt 0.125000 0.500000
vt 0.375000 0.250000
vt 0.625000 0.250000
vt 0.625000 0.250000
vt 0.375000 0.250000
vt 0.125000 0.500000
vt 0.125000 0.500000
vt 0.625000 0.250000
vt 0.375000 0.250000
vt 0.125000 0.500000
vt 0.125000 0.500000
vt 0.875000 0.500000
vt 0.875000 0.500000
vt 0.875000 0.500000
vt 0.125000 0.500000
vt 0.625000 0.250000
vt 0.625000 0.250000
vt 0.586215 0.250000
vt 0.125000 0.501380
vt 0.375000 0.169633
vt 0.625000 0.169633
vt 0.125000 0.750000
vt 0.125000 0.750000
vt 0.125000 0.750000
vt 0.125000 0.750000
vt 0.625000 1.000000
vt 0.375000 1.000000
vt 0.875000 0.750000
vt 0.875000 0.750000
vt 0.375000 1.000000
vt 0.625000 1.000000
vt 0.625000 1.000000
vt 0.375000 1.000000
vt 0.375000 0.000000
vt 0.625000 0.000000
vt 0.875000 0.750000
vt 0.875000 0.750000
vt 0.625000 0.500000
vt 0.625000 0.500000
vt 0.375000 0.750000
vt 0.625000 0.750000
vt 0.625000 0.750000
vt 0.625000 0.750000
vt 0.375000 0.500000
vt 0.375000 0.500000
vt 0.625000 0.750000
vt 0.625000 0.750000
vt 0.375000 0.750000
vt 0.375000 0.750000
vt 0.625000 0.500000
vt 0.625000 0.500000
vt 0.375000 0.750000
vt 0.625000 0.750000
vt 0.375000 0.750000
vt 0.375000 0.750000
vt 0.625000 0.750000
vt 0.625000 0.750000
vn 0.0000 -1.0000 0.0000
vn 0.5052 0.7314 -0.4580
vn 0.0000 1.0000 0.0000
vn 0.0000 0.0000 1.0000
vn 0.0000 -0.8234 -0.5675
vn 0.0431 0.9991 0.0000
vn 0.2990 -0.9543 0.0000
vn 0.2990 0.9543 0.0000
vn 0.9203 0.0000 -0.3912
vn 0.2707 -0.9453 -0.1820
vn 0.2989 -0.9543 0.0053
vn 0.2989 0.9543 0.0053
vn 0.9998 0.0000 0.0179
vn 0.6297 0.0000 0.7769
vn -0.8525 0.0000 0.5227
vn 0.2707 0.9453 -0.1820
vn 0.7940 0.0000 -0.6079
vn 0.0439 0.9990 0.0000
vn -0.0200 0.0000 -0.9998
vn 0.0931 0.0000 0.9957
vn 0.0431 -0.9991 0.0000
vn 0.0000 0.0000 -1.0000
vn -0.9828 0.0000 -0.1848
vn -0.9828 0.0000 0.1848
vn 0.0439 -0.9990 0.0000
vn 1.0000 0.0000 0.0000
vn 0.6550 0.0000 -0.7556
vn 0.0000 0.8234 -0.5675
vn -0.0086 0.0000 -1.0000
vn 0.5052 -0.7314 -0.4580
vn -0.0049 -0.8234 -0.5674
vn 0.0086 0.0000 1.0000
vn -0.0049 0.8234 -0.5674
vn -0.0097 -0.8234 -0.5673
vn -0.0097 0.8234 -0.5673
vn -0.0172 0.0000 -0.9999
vn 0.0172 0.0000 0.9999
vn -0.0456 -0.9989 0.0051
vn -0.0685 0.0000 -0.9977
vn -0.0299 0.0000 0.9996
vn -0.0456 0.9989 0.0051
vn 0.0001 1.0000 0.0044
vn 0.0001 -1.0000 0.0044
vn 0.9999 0.0000 -0.0172
vn -0.9999 0.0000 0.0172
vn -0.8450 0.5097 -0.1619
vn -0.8450 -0.5097 -0.1619
vn -0.0038 0.9548 -0.2971
vn -0.0038 -0.9548 -0.2971
vn -0.7010 0.0000 0.7132
vn -1.0000 0.0000 0.0000
vn -1.0000 0.0000 0.0086
vn 1.0000 0.0000 -0.0086
vn -0.9998 0.0000 -0.0179
vn 0.5188 0.0000 -0.8549
vn -0.0179 0.0000 0.9998
vn 0.0179 0.0000 -0.9998
vn -0.4984 0.0000 0.8669
vn 0.0000 -0.7769 0.6296
vn 0.7871 0.0000 0.6169
vn 0.0000 0.7769 0.6296
vn -0.8547 0.0000 -0.5191
usemtl None
s off
f 3/1/1 1/2/1 47/3/1 49/4/1
f 12/5/2 16/6/2 44/7/2 42/8/2
f 123/9/3 121/10/3 10/11/3 12/5/3
f 5/12/4 6/13/4 2/14/4 1/15/4
f 3/1/1 7/16/1 5/12/1 1/2/1
f 8/17/3 4/18/3 2/19/3 6/13/3
f 107/20/1 17/21/1 112/22/1 113/23/1
f 99/24/5 7/16/5 39/25/5 102/26/5
f 121/10/4 122/27/4 9/28/4 10/11/4
f 122/27/1 124/29/1 11/30/1 9/28/1
f 16/6/6 14/31/6 26/32/6 28/33/6
f 9/28/7 11/30/7 15/34/7 13/35/7
f 12/5/8 10/11/8 14/31/8 16/6/8
f 16/6/9 15/34/9 43/36/9 44/7/9
f 17/21/10 19/37/10 23/38/10 21/39/10
f 107/20/11 109/40/11 19/37/11 17/21/11
f 110/41/12 108/42/12 18/43/12 20/44/12
f 109/40/13 110/41/13 20/44/13 19/37/13
f 22/45/14 21/39/14 23/38/14 24/46/14
f 18/43/15 17/21/15 21/39/15 22/45/15
f 20/44/16 18/43/16 22/45/16 24/46/16
f 19/37/17 20/44/17 24/46/17 23/38/17
f 28/33/18 26/32/18 30/47/18 32/48/18
f 15/34/19 16/6/19 28/33/19 27/49/19
f 14/31/20 13/35/20 25/50/20 26/32/20
f 13/35/21 15/34/21 27/49/21 25/50/21
f 31/51/22 32/48/22 36/52/22 35/53/22
f 27/49/23 28/33/23 32/48/23 31/51/23
f 26/32/24 25/50/24 29/54/24 30/47/24
f 25/50/25 27/49/25 31/51/25 29/54/25
f 35/53/26 36/52/26 34/55/26 33/56/26
f 30/47/4 29/54/4 33/56/4 34/55/4
f 29/54/1 31/51/1 35/53/1 33/56/1
f 32/48/3 30/47/3 34/55/3 36/52/3
f 37/57/22 38/58/22 40/59/22 39/25/22
f 126/60/22 125/61/22 42/8/22 41/62/22
f 41/62/27 42/8/27 44/7/27 43/36/27
f 4/18/28 8/17/28 40/59/28 38/63/28
f 38/58/29 37/57/29 51/64/29 52/65/29
f 123/9/28 12/5/28 42/8/28 125/61/28
f 15/34/30 11/30/30 41/62/30 43/36/30
f 7/16/5 3/1/5 37/66/5 39/25/5
f 2/19/3 4/18/3 50/67/3 48/68/3
f 37/66/31 3/1/31 49/4/31 51/69/31
f 1/15/32 2/14/32 48/70/32 47/71/32
f 4/18/33 38/63/33 52/72/33 50/67/33
f 49/4/1 47/3/1 46/73/1 85/74/1 88/75/1
f 51/69/31 49/4/31 88/75/31 87/76/31 57/77/31
f 50/67/33 52/72/33 58/78/33 84/79/33 83/80/33
f 52/65/29 51/64/29 57/81/29 58/82/29
f 57/77/34 87/76/34 86/83/34 55/84/34 54/85/34
f 45/86/32 46/87/32 90/88/32 89/89/32
f 81/90/35 84/79/35 58/78/35 53/91/35 56/92/35
f 69/93/36 70/94/36 67/95/36 68/96/36
f 58/82/36 57/81/36 54/97/36 53/98/36
f 48/68/3 50/67/3 83/80/3 82/99/3 45/100/3
f 86/101/37 81/102/37 56/103/37 55/104/37
f 66/105/4 63/106/4 74/107/4 72/108/4
f 77/109/38 78/110/38 60/111/38 61/112/38
f 80/113/39 77/114/39 61/115/39 62/116/39
f 78/117/40 79/118/40 59/119/40 60/120/40
f 79/121/41 80/122/41 62/123/41 59/124/41
f 60/120/37 59/119/37 66/125/37 65/126/37
f 59/124/42 62/123/42 63/106/42 66/105/42
f 61/112/43 60/111/43 65/127/43 64/128/43
f 62/116/44 61/115/44 70/94/44 69/93/44
f 71/129/45 72/130/45 74/131/45 73/132/45
f 65/126/4 66/125/4 72/130/4 71/129/4
f 64/128/4 65/127/4 71/133/4 73/134/4
f 73/132/45 74/131/45 76/135/45 75/136/45
f 68/96/4 67/95/4 75/136/4 76/135/4
f 61/112/1 64/128/1 67/137/1 70/138/1
f 74/107/4 63/106/4 68/139/4 76/140/4
f 63/106/3 62/123/3 69/141/3 68/139/3
f 64/128/4 73/134/4 75/142/4 67/137/4
f 56/92/46 53/91/46 80/122/46 79/121/46
f 55/104/40 56/103/40 79/118/40 78/117/40
f 53/98/39 54/97/39 77/114/39 80/113/39
f 54/85/47 55/84/47 78/110/47 77/109/47
f 81/102/48 82/143/48 83/144/48 84/145/48
f 85/74/49 86/146/49 87/76/49 88/75/49
f 81/102/50 86/101/50 85/147/50 82/148/50
f 46/87/51 45/86/51 82/148/51 85/147/51
f 90/149/1 91/150/1 95/151/1 94/152/1
f 46/73/32 47/3/32 91/150/32 90/149/32
f 47/71/32 48/70/32 92/153/32 91/154/32
f 48/68/32 45/100/32 89/155/32 92/156/32
f 95/157/32 96/158/32 93/159/32 94/160/32
f 89/89/52 90/88/52 94/161/52 93/162/52
f 92/156/3 89/155/3 93/163/3 96/164/3
f 91/154/53 92/153/53 96/158/53 95/157/53
f 8/17/28 98/165/28 101/166/28 40/59/28
f 39/25/22 40/59/22 101/166/22 102/26/22
f 5/12/1 7/16/1 99/24/1 100/167/1
f 97/168/3 6/13/3 103/169/3 105/170/3
f 118/171/5 99/24/5 102/26/5 120/172/5
f 8/17/3 6/13/3 97/168/3 98/165/3
f 105/170/3 103/169/3 111/173/3 114/174/3
f 100/167/26 97/168/26 105/170/26 106/175/26
f 5/12/1 100/167/1 106/175/1 104/176/1
f 6/13/51 5/12/51 104/176/51 103/169/51
f 13/35/13 14/31/13 110/41/13 109/40/13
f 14/31/12 10/11/12 108/42/12 110/41/12
f 9/28/11 13/35/11 109/40/11 107/20/11
f 10/11/54 9/28/54 107/20/54 108/42/54
f 105/170/55 114/174/55 113/23/55 106/175/55
f 17/21/56 18/43/56 111/173/56 112/22/56
f 108/42/57 107/20/57 113/23/57 114/174/57
f 18/43/3 108/42/3 114/174/3 111/173/3
f 104/176/1 106/175/1 113/23/1 112/22/1
f 104/176/58 112/22/58 111/173/58 103/169/58
f 124/29/5 118/171/5 120/172/5 126/60/5
f 98/165/28 117/177/28 119/178/28 101/166/28
f 102/26/22 101/166/22 119/178/22 120/172/22
f 100/167/1 99/24/1 118/171/1 116/179/1
f 97/168/4 100/167/4 116/179/4 115/180/4
f 98/165/3 97/168/3 115/180/3 117/177/3
f 11/30/5 124/29/5 126/60/5 41/62/5
f 117/177/28 123/9/28 125/61/28 119/178/28
f 120/172/22 119/178/22 125/61/22 126/60/22
f 116/179/1 118/171/1 124/29/1 122/27/1
f 116/179/59 122/27/59 130/181/59 127/182/59
f 117/177/3 115/180/3 121/10/3 123/9/3
f 128/183/4 127/182/4 130/181/4 129/184/4
f 122/27/60 121/10/60 129/184/60 130/181/60
f 121/10/61 115/180/61 128/183/61 129/184/61
f 115/180/62 116/179/62 127/182/62 128/183/62
